<?xml version="1.0" standalone="no"?><!DOCTYPE svg PUBLIC "-//W3C//DTD SVG 1.1//EN" "http://www.w3.org/Graphics/SVG/1.1/DTD/svg11.dtd"><svg t="1704291618159" class="icon" viewBox="0 0 1024 1024" version="1.1" xmlns="http://www.w3.org/2000/svg" p-id="2681" xmlns:xlink="http://www.w3.org/1999/xlink" width="200" height="200"><path d="M124.7 801.2h774.6V877H124.7zM474.8 490.2a45.3 45.3 0 1 0 90.6 0 45.3 45.3 0 1 0-90.6 0zM474.8 300.6a45.3 45.3 0 1 0 90.6 0 45.3 45.3 0 1 0-90.6 0zM474.8 684.4a45.3 45.3 0 1 0 90.6 0 45.3 45.3 0 1 0-90.6 0zM653.6 381.9a45.3 45.3 0 1 0 90.6 0 45.3 45.3 0 1 0-90.6 0zM653.6 192.3a45.3 45.3 0 1 0 90.6 0 45.3 45.3 0 1 0-90.6 0zM653.6 576.1a45.3 45.3 0 1 0 90.6 0 45.3 45.3 0 1 0-90.6 0zM279.8 381.9a45.3 45.3 0 1 0 90.6 0 45.3 45.3 0 1 0-90.6 0zM279.8 192.3a45.3 45.3 0 1 0 90.6 0 45.3 45.3 0 1 0-90.6 0zM279.8 576.1a45.3 45.3 0 1 0 90.6 0 45.3 45.3 0 1 0-90.6 0z" fill="#FFCD00" p-id="2682"></path></svg>