<?xml version="1.0" standalone="no"?><!DOCTYPE svg PUBLIC "-//W3C//DTD SVG 1.1//EN" "http://www.w3.org/Graphics/SVG/1.1/DTD/svg11.dtd"><svg t="1704291656550" class="icon" viewBox="0 0 1024 1024" version="1.1" xmlns="http://www.w3.org/2000/svg" p-id="5619" xmlns:xlink="http://www.w3.org/1999/xlink" width="200" height="200"><path d="M773.3 535.6H149.1c-14.5 0-26.3-11.8-26.3-26.3s11.8-26.3 26.3-26.3h624.2c44.4 0 80.5-36.1 80.5-80.5 0-29.7-16.3-56.9-42.4-71-12.8-6.9-17.6-22.8-10.7-35.6 6.9-12.8 22.8-17.6 35.6-10.7 43.2 23.3 70.1 68.2 70.1 117.3 0 73.3-59.7 133.1-133.1 133.1z" fill="#FFCD00" p-id="5620"></path><path d="M630.7 363.1H143.9c-14.5 0-26.3-11.8-26.3-26.3s11.8-26.3 26.3-26.3h486.8c29.4 0 53.3-23.9 53.3-53.3s-23.9-53.3-53.3-53.3c-14.5 0-26.3-11.8-26.3-26.3s11.8-26.3 26.3-26.3c58.4 0 105.9 47.5 105.9 105.9s-47.5 105.9-105.9 105.9z" fill="#FFCD00" p-id="5621"></path><path d="M464.8 240a32.9 32.9 0 1 0 65.8 0 32.9 32.9 0 1 0-65.8 0zM336.2 240a32.9 32.9 0 1 0 65.8 0 32.9 32.9 0 1 0-65.8 0zM207.6 240a32.9 32.9 0 1 0 65.8 0 32.9 32.9 0 1 0-65.8 0zM754.6 872.8c-14.5 0-26.3-11.8-26.3-26.3s11.8-26.3 26.3-26.3c29.4 0 53.3-23.9 53.3-53.3s-23.9-53.3-53.3-53.3H154.4c-14.5 0-26.3-11.8-26.3-26.3s11.8-26.3 26.3-26.3h600.2c58.4 0 105.9 47.5 105.9 105.9 0 58.4-47.5 105.9-105.9 105.9z" fill="#FFCD00" p-id="5622"></path><path d="M588.7 794.5a32.9 32.9 0 1 0 65.8 0 32.9 32.9 0 1 0-65.8 0zM460.1 794.5a32.9 32.9 0 1 0 65.8 0 32.9 32.9 0 1 0-65.8 0zM331.4 794.5a32.9 32.9 0 1 0 65.8 0 32.9 32.9 0 1 0-65.8 0zM203.1 794.5a32.9 32.9 0 1 0 65.8 0 32.9 32.9 0 1 0-65.8 0zM588.7 605.2a32.9 32.9 0 1 0 65.8 0 32.9 32.9 0 1 0-65.8 0zM460.1 605.2a32.9 32.9 0 1 0 65.8 0 32.9 32.9 0 1 0-65.8 0zM331.4 605.2a32.9 32.9 0 1 0 65.8 0 32.9 32.9 0 1 0-65.8 0zM203.1 605.2a32.9 32.9 0 1 0 65.8 0 32.9 32.9 0 1 0-65.8 0zM588.7 415.9a32.9 32.9 0 1 0 65.8 0 32.9 32.9 0 1 0-65.8 0zM460.1 415.9a32.9 32.9 0 1 0 65.8 0 32.9 32.9 0 1 0-65.8 0zM331.4 415.9a32.9 32.9 0 1 0 65.8 0 32.9 32.9 0 1 0-65.8 0zM203.1 415.9a32.9 32.9 0 1 0 65.8 0 32.9 32.9 0 1 0-65.8 0z" fill="#FFCD00" p-id="5623"></path></svg>