<?xml version="1.0" standalone="no"?><!DOCTYPE svg PUBLIC "-//W3C//DTD SVG 1.1//EN" "http://www.w3.org/Graphics/SVG/1.1/DTD/svg11.dtd"><svg t="1704291652238" class="icon" viewBox="0 0 1024 1024" version="1.1" xmlns="http://www.w3.org/2000/svg" p-id="5292" xmlns:xlink="http://www.w3.org/1999/xlink" width="200" height="200"><path d="M775.3 286.4c91.8 0 166.2 76.5 166.2 167.7 0 85.6-66.3 157-149.9 165.2H243.1C149.3 606.1 82.5 524 82.5 427.1c0-90.7 62.7-166.7 147.3-187.1 27.5-99.4 121.3-175.4 229.4-175.4 130.5 0 233 109.1 233 238.1 0 3.1-0.5 5.6-0.5 9.2 24.5-14.3 53-25.5 83.6-25.5z" fill="#E5E5E5" p-id="5293"></path><path d="M318 790.6c-4.7 0-9.4-1-13.9-3.2-15.8-7.7-22.4-26.8-14.7-42.6l37.3-76.6c7.7-15.8 26.8-22.4 42.6-14.7 15.8 7.7 22.4 26.8 14.7 42.6l-37.3 76.6c-5.5 11.3-16.9 17.9-28.7 17.9z m0 168.7c-4.7 0-9.4-1-13.9-3.2-15.8-7.7-22.4-26.8-14.7-42.6l37.3-76.6c7.7-15.8 26.8-22.4 42.6-14.7 15.8 7.7 22.4 26.8 14.7 42.6l-37.3 76.6c-5.5 11.3-16.9 17.9-28.7 17.9z m168.7-167.6c-4.7 0-9.4-1-13.9-3.2-15.8-7.7-22.4-26.8-14.7-42.6l18.8-38.6c7.7-15.8 26.8-22.4 42.6-14.7 15.8 7.7 22.4 26.8 14.7 42.6l-18.8 38.6c-5.6 11.3-16.9 17.9-28.7 17.9z m0 128.4c-4.7 0-9.4-1-13.9-3.2-15.8-7.7-22.4-26.8-14.7-42.6l18.8-38.6c7.7-15.8 26.8-22.4 42.6-14.7 15.8 7.7 22.4 26.8 14.7 42.6l-18.8 38.6c-5.6 11.3-16.9 17.9-28.7 17.9z m156.5-129.5c-4.7 0-9.4-1-13.9-3.2-15.8-7.7-22.4-26.8-14.7-42.6l37.3-76.6c7.7-15.8 26.8-22.4 42.6-14.7 15.8 7.7 22.4 26.8 14.7 42.6l-37.3 76.6c-5.6 11.3-16.9 17.9-28.7 17.9z m0 168.7c-4.7 0-9.4-1-13.9-3.2-15.8-7.7-22.4-26.8-14.7-42.6l37.3-76.6c7.7-15.8 26.8-22.4 42.6-14.7 15.8 7.7 22.4 26.8 14.7 42.6l-37.3 76.6c-5.6 11.3-16.9 17.9-28.7 17.9z" fill="#B3E2FF" p-id="5294"></path></svg>