<?xml version="1.0" standalone="no"?><!DOCTYPE svg PUBLIC "-//W3C//DTD SVG 1.1//EN" "http://www.w3.org/Graphics/SVG/1.1/DTD/svg11.dtd"><svg t="1684226597310" class="icon" viewBox="0 0 1024 1024" version="1.1" xmlns="http://www.w3.org/2000/svg" p-id="2396" xmlns:xlink="http://www.w3.org/1999/xlink" width="128" height="128"><path d="M273.066667 945.066667c-14.933333 0-29.866667-4.266667-40.533334-12.8-21.333333-14.933333-32-42.666667-27.733333-68.266667l40.533333-236.8c0-2.133333 0-4.266667-2.133333-6.4l-172.8-168.533333c-19.2-19.2-25.6-46.933333-17.066667-72.533334 8.533333-25.6 29.866667-44.8 57.6-46.933333L347.733333 298.666667c2.133333 0 4.266667-2.133333 4.266667-4.266667l23.466667-44.8c8.533333-14.933333 27.733333-21.333333 42.666666-14.933333 14.933333 8.533333 21.333333 27.733333 14.933334 42.666666l-23.466667 44.8c-10.666667 21.333333-29.866667 34.133333-53.333333 38.4L119.466667 396.8c-2.133333 0-4.266667 2.133333-4.266667 4.266667s0 4.266667 2.133333 6.4l172.8 168.533333c17.066667 17.066667 23.466667 38.4 19.2 61.866667l-42.666666 236.8c0 2.133333 0 4.266667 2.133333 6.4 2.133333 2.133333 4.266667 2.133333 6.4 0l213.333333-113.066667c21.333333-10.666667 44.8-10.666667 66.133334 0l213.333333 113.066667c2.133333 2.133333 4.266667 2.133333 6.4 0 2.133333-2.133333 2.133333-4.266667 2.133333-6.4l-40.533333-236.8c-4.266667-23.466667 4.266667-46.933333 21.333333-61.866667l46.933334-46.933333c12.8-12.8 32-12.8 44.8 0 12.8 12.8 12.8 32 0 44.8l-46.933334 46.933333c-2.133333 2.133333-2.133333 4.266667-2.133333 6.4l40.533333 236.8c4.266667 25.6-6.4 53.333333-27.733333 68.266667-21.333333 14.933333-51.2 17.066667-74.666667 6.4l-213.333333-110.933334h-6.4l-213.333333 113.066667c-8.533333 2.133333-21.333333 4.266667-32 4.266667z" fill="#543E3E" p-id="2397"></path><path d="M896 516.266667c-8.533333 0-17.066667-4.266667-23.466667-10.666667-12.8-12.8-12.8-32 0-44.8l55.466667-53.333333s2.133333-2.133333 2.133333-6.4c0-2.133333-2.133333-4.266667-8.533333-6.4L682.666667 360.533333c-21.333333-2.133333-40.533333-17.066667-51.2-38.4L526.933333 106.666667c-2.133333-4.266667-8.533333-4.266667-10.666666 0l-40.533334 83.2c-8.533333 14.933333-27.733333 21.333333-42.666666 14.933333-14.933333-8.533333-21.333333-27.733333-14.933334-42.666667l40.533334-83.2c12.8-23.466667 36.266667-38.4 64-38.4s51.2 14.933333 64 38.4l106.666666 215.466667c0 2.133333 2.133333 2.133333 2.133334 4.266667l236.8 34.133333c27.733333 4.266667 51.2 23.466667 59.733333 49.066667 8.533333 25.6 2.133333 53.333333-17.066667 70.4l-55.466666 53.333333c-6.4 6.4-14.933333 10.666667-23.466667 10.666667z" fill="#FFBB12" p-id="2398"></path></svg>