<?xml version="1.0" standalone="no"?><!DOCTYPE svg PUBLIC "-//W3C//DTD SVG 1.1//EN" "http://www.w3.org/Graphics/SVG/1.1/DTD/svg11.dtd"><svg t="1683530125789" class="icon" viewBox="0 0 1024 1024" version="1.1" xmlns="http://www.w3.org/2000/svg" p-id="5502" xmlns:xlink="http://www.w3.org/1999/xlink" width="128" height="128"><path d="M486.968889 388.551111l-241.493333-4.721778-1.137778 56.888889 271.075555 5.290667a28.444444 28.444444 0 0 0 29.013334-29.013333L539.306667 160.312889l-56.888889 1.137778 4.494222 227.100444z" fill="#687078" p-id="5503"></path><path d="M497.095111 142.165333l8.192-7.509333H768c24.348444 0 43.576889 20.024889 43.576889 44.202667V821.475556a43.918222 43.918222 0 0 1-43.576889 44.259555H242.744889a43.918222 43.918222 0 0 1-43.633778-44.259555V435.2c0-18.773333 15.928889-33.735111 297.984-293.034667z m-177.834667 242.346667c-23.893333 22.584889-41.813333 39.708444-53.646222 51.427556-3.982222 3.982222-7.281778 7.224889-9.784889 9.841777l0.967111-1.365333C257.706667 442.823111 256 442.595556 256 435.2v373.646222h498.744889V191.544889H527.416889C435.313778 276.252444 365.909333 340.593778 319.260444 384.568889z" fill="#687078" p-id="5504"></path><path d="M326.883556 656.099556h265.500444l19.683556 38.968888a7.566222 7.566222 0 0 1-6.769778 10.979556H339.797333l-19.683555-38.912a7.566222 7.566222 0 0 1 6.826666-11.036444z m2.844444-98.588445h360.334222l19.683556 38.912a7.566222 7.566222 0 0 1-6.826667 11.036445H342.698667l-19.683556-38.912a7.566222 7.566222 0 0 1 6.826667-11.036445z" fill="#687078" p-id="5505"></path></svg>