<?xml version="1.0" standalone="no"?><!DOCTYPE svg PUBLIC "-//W3C//DTD SVG 1.1//EN" "http://www.w3.org/Graphics/SVG/1.1/DTD/svg11.dtd"><svg t="1684754978192" class="icon" viewBox="0 0 1024 1024" version="1.1" xmlns="http://www.w3.org/2000/svg" p-id="2509" xmlns:xlink="http://www.w3.org/1999/xlink" width="128" height="128"><path d="M772.7 212.9v112H623.4v-112H399.3v112H250v-112H63.3v746.7h896V212.9H772.7zM922 922.2H100.7v-672h112V362.1h223.8V250.2H586V362.1H810V250.2h112v672z" fill="#2c2c2c" p-id="2510"></path><path d="M287.3 100.9H362v186.7h-74.7zM735.3 212.9v-112h-74.6v186.7h74.6zM138 884.9h746.7V399.6H138v485.3z m37.3-448h672v410.7h-672V436.9z" fill="#2c2c2c" p-id="2511"></path><path d="M307.6 557.4m-57.4 0a57.4 57.4 0 1 0 114.8 0 57.4 57.4 0 1 0-114.8 0Z" fill="#2c2c2c" p-id="2512"></path><path d="M707.6 557.4m-57.4 0a57.4 57.4 0 1 0 114.8 0 57.4 57.4 0 1 0-114.8 0Z" fill="#2c2c2c" p-id="2513"></path><path d="M507.6 557.4m-57.4 0a57.4 57.4 0 1 0 114.8 0 57.4 57.4 0 1 0-114.8 0Z" fill="#2c2c2c" p-id="2514"></path><path d="M307.6 726.4m-57.4 0a57.4 57.4 0 1 0 114.8 0 57.4 57.4 0 1 0-114.8 0Z" fill="#2c2c2c" p-id="2515"></path><path d="M707.6 726.4m-57.4 0a57.4 57.4 0 1 0 114.8 0 57.4 57.4 0 1 0-114.8 0Z" fill="#2c2c2c" p-id="2516"></path><path d="M507.6 726.4m-57.4 0a57.4 57.4 0 1 0 114.8 0 57.4 57.4 0 1 0-114.8 0Z" fill="#2c2c2c" p-id="2517"></path></svg>