<?xml version="1.0" standalone="no"?><!DOCTYPE svg PUBLIC "-//W3C//DTD SVG 1.1//EN" "http://www.w3.org/Graphics/SVG/1.1/DTD/svg11.dtd"><svg t="1683525287752" class="icon" viewBox="0 0 1024 1024" version="1.1" xmlns="http://www.w3.org/2000/svg" p-id="5155" xmlns:xlink="http://www.w3.org/1999/xlink" width="128" height="128"><path d="M448 886.144V512H320.5c3.256 104.124 22.324 200.256 53.148 272.18 22.132 51.64 48.292 86.176 74.352 101.964z m64 0c26.06-15.788 52.22-50.32 74.352-101.964 30.824-71.92 49.892-168.056 53.148-272.18H512zM448 73.856c-26.06 15.788-52.22 50.32-74.352 101.964C342.824 247.74 323.756 343.88 320.5 448H448z m64 0V448h127.5c-3.256-104.124-22.324-200.256-53.148-272.18-22.132-51.64-48.292-86.176-74.352-101.964zM65.212 512c12.952 170.252 128.384 311.86 284.748 363.272C295.492 794.092 260.8 662.012 256.46 512z m0-64h191.248C260.8 297.988 295.492 165.908 349.96 84.728 193.596 136.14 78.16 277.748 65.212 448z m829.576 0c-12.952-170.252-128.384-311.86-284.748-363.272C664.508 165.908 699.2 297.988 703.54 448z m0 64h-191.248c-4.336 150.012-39.032 282.092-93.5 363.272 156.364-51.412 271.8-193.02 284.748-363.272zM480 960C214.904 960 0 745.096 0 480S214.904 0 480 0s480 214.904 480 480-214.904 480-480 480z" p-id="5156"></path></svg>