<?xml version="1.0" standalone="no"?><!DOCTYPE svg PUBLIC "-//W3C//DTD SVG 1.1//EN" "http://www.w3.org/Graphics/SVG/1.1/DTD/svg11.dtd"><svg t="1683528288012" class="icon" viewBox="0 0 1024 1024" version="1.1" xmlns="http://www.w3.org/2000/svg" p-id="14703" xmlns:xlink="http://www.w3.org/1999/xlink" width="128" height="128"><path d="M438.3 917.2l-98.6-82.8c-11.7-9.8-13.3-27.3-3.4-39.1 11.4-13.5 31.5-15.3 45.1-3.9L431 833l58.1-69.2h381.4c16.5 0 29.9-13.4 29.9-29.9V196.4c0-16.5-13.4-29.9-29.9-29.9H153.6c-16.5 0-29.9 13.4-29.9 29.9V734c0 16.5 13.4 29.9 29.9 29.9h61.3c17.7 0 32 14.3 32 32 0 15.3-12.4 27.7-27.7 27.7h-65.6c-49.5 0-89.6-40.1-89.6-89.6V196.4c0-49.5 40.1-89.6 89.6-89.6h716.8c49.5 0 89.6 40.1 89.6 89.6V734c0 49.5-40.1 89.6-89.6 89.6H516.9l-78.6 93.6z" fill="#333333" p-id="14704"></path><path d="M293.7 462m-48 0a48 48 0 1 0 96 0 48 48 0 1 0-96 0Z" fill="#333333" p-id="14705"></path><path d="M511.7 462m-48 0a48 48 0 1 0 96 0 48 48 0 1 0-96 0Z" fill="#333333" p-id="14706"></path><path d="M730.3 462m-48 0a48 48 0 1 0 96 0 48 48 0 1 0-96 0Z" fill="#333333" p-id="14707"></path></svg>