<?xml version="1.0" standalone="no"?><!DOCTYPE svg PUBLIC "-//W3C//DTD SVG 1.1//EN" "http://www.w3.org/Graphics/SVG/1.1/DTD/svg11.dtd"><svg t="1683530399781" class="icon" viewBox="0 0 1024 1024" version="1.1" xmlns="http://www.w3.org/2000/svg" p-id="1809" xmlns:xlink="http://www.w3.org/1999/xlink" width="128" height="128"><path d="M782.4 761.6H264c-100.8 0-182.4-81.6-182.4-182.4 0-107.2 96-193.6 203.2-180.8 24-96 110.4-164.8 211.2-164.8 72 0 139.2 35.2 179.2 94.4 12.8-4.8 27.2-8 41.6-8 64 0 116.8 52.8 116.8 116.8 0 4.8 0 9.6-1.6 14.4 64 20.8 108.8 83.2 108.8 150.4 1.6 89.6-70.4 160-158.4 160zM264 432c-81.6 0-148.8 67.2-148.8 148.8s67.2 148.8 148.8 148.8H784c68.8 0 126.4-56 126.4-126.4 0-59.2-41.6-110.4-99.2-123.2-4.8-1.6-8-3.2-11.2-8-1.6-3.2-3.2-8-1.6-12.8 1.6-6.4 3.2-14.4 3.2-20.8 0-46.4-36.8-83.2-83.2-83.2-14.4 0-27.2 3.2-40 9.6-8 4.8-17.6 1.6-22.4-6.4-33.6-56-92.8-91.2-158.4-91.2-89.6 0-166.4 64-182.4 152 0 4.8-3.2 8-6.4 11.2-3.2 3.2-8 3.2-12.8 3.2-11.2-1.6-22.4-1.6-32-1.6z" fill="#3E3A34" p-id="1810"></path><path d="M379.2 464c-22.4-22.4-51.2-38.4-83.2-46.4" fill="#FFFFFF" p-id="1811"></path><path d="M379.2 480c-4.8 0-8-1.6-11.2-4.8-20.8-20.8-46.4-35.2-75.2-41.6-9.6-1.6-14.4-11.2-12.8-19.2 1.6-9.6 11.2-14.4 19.2-12.8 35.2 8 65.6 24 91.2 49.6 6.4 6.4 6.4 17.6 0 24-1.6 3.2-6.4 4.8-11.2 4.8z" fill="#3E3A34" p-id="1812"></path><path d="M670.4 350.4c-9.6 4.8-17.6 11.2-24 19.2" fill="#FFFFFF" p-id="1813"></path><path d="M646.4 385.6c-4.8 0-8-1.6-11.2-4.8-6.4-6.4-6.4-17.6 0-24 8-8 17.6-16 27.2-20.8 8-4.8 17.6-1.6 22.4 6.4 4.8 8 1.6 17.6-6.4 22.4-6.4 3.2-14.4 9.6-19.2 16-4.8 3.2-9.6 4.8-12.8 4.8z" fill="#3E3A34" p-id="1814"></path><path d="M772.8 521.6c20.8-12.8 35.2-33.6 41.6-57.6" fill="#FFFFFF" p-id="1815"></path><path d="M772.8 539.2c-4.8 0-11.2-3.2-14.4-8-4.8-8-3.2-17.6 4.8-22.4 17.6-11.2 30.4-28.8 35.2-48 1.6-9.6 11.2-14.4 20.8-11.2 9.6 1.6 14.4 11.2 11.2 20.8-8 27.2-24 51.2-49.6 67.2-1.6 0-4.8 1.6-8 1.6zM620.8 761.6c-9.6 0-16-8-16-16s8-16 16-16c49.6 0 91.2-41.6 91.2-91.2s-41.6-91.2-91.2-91.2-91.2 41.6-91.2 91.2c0 9.6-8 16-16 16s-16-8-16-16c0-68.8 56-124.8 124.8-124.8s124.8 56 124.8 124.8-57.6 123.2-126.4 123.2z" fill="#3E3A34" p-id="1816"></path><path d="M532.8 699.2c-9.6 0-16-8-16-16 0-28.8-24-52.8-52.8-52.8-9.6 0-16-8-16-16s8-16 16-16c48 0 86.4 38.4 86.4 86.4-1.6 8-8 14.4-17.6 14.4zM419.2 424c-3.2 0-6.4-1.6-9.6-3.2-8-4.8-9.6-16-3.2-24 43.2-57.6 124.8-70.4 182.4-27.2 8 4.8 9.6 16 3.2 24-4.8 8-16 9.6-22.4 3.2-43.2-32-104-22.4-136 20.8-4.8 3.2-9.6 6.4-14.4 6.4zM201.6 632c-3.2 0-6.4-1.6-9.6-3.2-8-4.8-9.6-16-3.2-24 43.2-57.6 124.8-70.4 182.4-27.2 8 4.8 9.6 16 3.2 24-4.8 8-16 9.6-22.4 3.2-43.2-32-104-22.4-136 20.8-4.8 3.2-9.6 6.4-14.4 6.4z" fill="#3E3A34" p-id="1817"></path><path d="M488 377.6c-8 0-14.4-6.4-16-14.4-3.2-24 1.6-48 14.4-68.8 4.8-8 16-9.6 22.4-4.8 8 4.8 9.6 14.4 4.8 22.4-8 14.4-12.8 30.4-9.6 46.4 1.6 9.6-4.8 17.6-14.4 19.2h-1.6zM796.8 569.6c-6.4 0-12.8-3.2-14.4-9.6-6.4-14.4-19.2-27.2-33.6-33.6-8-3.2-12.8-14.4-8-22.4 3.2-8 14.4-12.8 22.4-8 22.4 9.6 40 27.2 49.6 49.6 3.2 8 0 17.6-8 22.4-3.2 1.6-6.4 1.6-8 1.6zM256 587.2c-6.4 0-12.8-3.2-14.4-9.6-6.4-14.4-19.2-27.2-33.6-33.6-8-3.2-12.8-12.8-8-22.4 3.2-8 14.4-11.2 22.4-8 22.4 9.6 40 27.2 49.6 49.6 3.2 8 0 17.6-8 22.4-3.2 1.6-6.4 1.6-8 1.6z" fill="#3E3A34" p-id="1818"></path></svg>