<?xml version="1.0" standalone="no"?><!DOCTYPE svg PUBLIC "-//W3C//DTD SVG 1.1//EN" "http://www.w3.org/Graphics/SVG/1.1/DTD/svg11.dtd"><svg t="1683525126250" class="icon" viewBox="0 0 1024 1024" version="1.1" xmlns="http://www.w3.org/2000/svg" p-id="4227" xmlns:xlink="http://www.w3.org/1999/xlink" width="128" height="128"><path d="M722.150659 916.657309H193.141526c-47.27723 0-85.798835-38.521606-85.798835-85.798835V301.849341c0-47.27723 38.521606-85.798835 85.798835-85.798835h529.009133c47.27723 0 85.783144 38.521606 85.783144 85.798835v529.009133c0 47.27723-38.505915 85.798835-85.783144 85.798835zM193.141526 273.244499c-15.738155 0-28.604842 12.866687-28.604842 28.604842v529.009133c0 15.738155 12.866687 28.604842 28.604842 28.604842h529.009133c15.738155 0 28.604842-12.866687 28.604842-28.604842V301.849341c0-15.738155-12.866687-28.604842-28.604842-28.604842H193.141526z" p-id="4228"></path><path d="M495.885259 658.664542l-83.555011 83.555011c-19.205884 19.205884-44.766656 29.844438-72.022065 29.844437-27.255409 0-52.722035-10.544407-72.022066-29.844437-19.205884-19.221575-29.844438-44.766656-29.844438-72.022066 0-27.176954 10.544407-52.722035 29.844438-72.037757l68.632792-68.617101c11.17205-11.17205 29.310941-11.17205 40.482991 0 11.17205 11.156359 11.17205 29.310941 0 40.482992l-68.632792 68.6171c-8.394729 8.394729-13.039289 19.660926-13.039289 31.554766 0 11.878149 4.64456 23.144346 13.039289 31.539074 8.394729 8.394729 19.660926 13.039289 31.539075 13.039289 11.89384 0 23.144346-4.64456 31.554765-13.039289l83.555011-83.55501c15.188967-15.188967 17.417101-39.055103 5.350659-56.660497-8.928226-13.039289-5.633098-30.832976 7.421882-39.761201 13.039289-8.943917 30.832976-5.633098 39.761201 7.421882 27.616304 40.388845 22.516702 94.899663-12.066442 129.482807z" p-id="4229"></path><path d="M646.911922 534.453938l-68.632792 68.632792c-11.17205 11.156359-29.310941 11.156359-40.482991 0-11.17205-11.17205-11.17205-29.310941 0-40.482991l68.632791-68.632792a44.437144 44.437144 0 0 0 13.054981-31.539074c0-11.89384-4.660251-23.160037-13.054981-31.554766-17.417101-17.417101-45.661048-17.417101-63.09384 0l-83.539319 83.555011c-15.188967 15.188967-17.432792 39.055103-5.36635 56.660496 8.928226 13.039289 5.633098 30.832976-7.421882 39.761202a28.265915 28.265915 0 0 1-16.083359 5.005455c-9.116519 0-18.044744-4.377812-23.599387-12.427337-27.600613-40.388845-22.516702-94.805516 12.066442-129.388661l83.555011-83.555011c39.682746-39.682746 104.28293-39.682746 143.965676 0 19.205884 19.221575 29.844438 44.766656 29.844437 72.022066 0 27.176954-10.638553 52.722035-29.844437 71.94361z" p-id="4230"></path><path d="M818.666503 119.550352H289.641679c-47.27723 0-85.783144 38.505915-85.783144 85.783145v4.111063h57.193993v-4.111063c0-15.722464 12.866687-28.604842 28.589151-28.604842h529.024824c15.722464 0 28.589151 12.882378 28.589151 28.604842V734.342629c0 15.738155-12.866687 28.604842-28.589151 28.604843h-3.844315v57.193993h3.844315c47.27723 0 85.783144-38.521606 85.783145-85.798836V205.333497c0-47.27723-38.505915-85.783144-85.783145-85.783145z" p-id="4231"></path></svg>