<?xml version="1.0" standalone="no"?><!DOCTYPE svg PUBLIC "-//W3C//DTD SVG 1.1//EN" "http://www.w3.org/Graphics/SVG/1.1/DTD/svg11.dtd"><svg t="1683526776557" class="icon" viewBox="0 0 1024 1024" version="1.1" xmlns="http://www.w3.org/2000/svg" p-id="10935" xmlns:xlink="http://www.w3.org/1999/xlink" width="128" height="128"><path d="M240 192c-70.692 0-128 57.308-128 128 0 70.692 57.308 128 128 128v-64c-35.346 0-64-28.654-64-64 0-35.346 28.654-64 64-64v-64z" fill="#515151" p-id="10936"></path><path d="M234 192h552a8 8 0 0 1 8 8v48a8 8 0 0 1-8 8H234v-64zM234 384h398a8 8 0 0 1 8 8v48a8 8 0 0 1-8 8H234v-64zM192 576v64c-35.346 0-64 28.654-64 64 0 35.346 28.654 64 64 64v64c-70.692 0-128-57.308-128-128 0-70.692 57.308-128 128-128zM192 768h328a8 8 0 0 1 8 8v48a8 8 0 0 1-8 8H192v-64zM832 384c70.692 0 128 57.308 128 128 0 70.692-57.308 128-128 128v-64c35.346 0 64-28.654 64-64 0-35.346-28.654-64-64-64v-64zM832 576H264a8 8 0 0 0-8 8v48a8 8 0 0 0 8 8h568v-64z" fill="#515151" p-id="10937"></path><path d="M608 224c0 53.019-42.981 96-96 96s-96-42.981-96-96 42.981-96 96-96 96 42.981 96 96zM898 416c0 53.019-42.981 96-96 96s-96-42.981-96-96 42.981-96 96-96 96 42.981 96 96zM339 608c0 53.019-42.981 96-96 96s-96-42.981-96-96 42.981-96 96-96 96 42.981 96 96zM610 800c0 53.019-42.981 96-96 96s-96-42.981-96-96 42.981-96 96-96 96 42.981 96 96z" fill="#515151" p-id="10938"></path></svg>