<svg xmlns="http://www.w3.org/2000/svg" width="195" height="298.63" viewBox="0 0 195 298.63">
  <g id="组_4" data-name="组 4" transform="translate(1018 -990.37)">
    <g id="history1" transform="translate(-1082.792 925.899)">
      <path id="路径_1" data-name="路径 1" d="M216.81,136.747a6.8,6.8,0,0,0-7.617,11.275,83.9,83.9,0,1,1-93.8,0,6.8,6.8,0,0,0-7.617-11.275,97.5,97.5,0,1,0,109.037,0Z" transform="translate(0 -55.622)" fill="#2c2c2c"/>
      <path id="路径_2" data-name="路径 2" d="M376.571,64.471a6.8,6.8,0,0,0-6.8,6.8V77.91a6.8,6.8,0,1,0,13.6,0V71.274A6.8,6.8,0,0,0,376.571,64.471Z" transform="translate(-238.557)" fill="#2c2c2c"/>
      <path id="路径_3" data-name="路径 3" d="M599.52,64.471a6.8,6.8,0,0,0-6.8,6.8V77.91a6.8,6.8,0,1,0,13.6,0V71.274A6.8,6.8,0,0,0,599.52,64.471Z" transform="translate(-412.95)" fill="#2c2c2c"/>
      <path id="路径_4" data-name="路径 4" d="M422.333,190.168c2.442,3.93,9.141,10.582,18.764,10.582,9.575,0,16.357-6.6,18.855-10.5a6.766,6.766,0,0,0-2.013-9.313,6.839,6.839,0,0,0-9.4,1.909c-.029.042-2.965,4.3-7.442,4.3-4.353,0-7.061-3.942-7.245-4.218a6.8,6.8,0,0,0-11.519,7.241Z" transform="translate(-278.872 -90.193)" fill="#2c2c2c"/>
      <path id="路径_5" data-name="路径 5" d="M486.35,335.164a6.8,6.8,0,0,0-6.8,6.8v45.349c0,.138.033.267.041.4a6.785,6.785,0,0,0,.073.722c.037.22.091.431.148.643s.115.413.191.614a6.689,6.689,0,0,0,.275.62c.094.191.192.378.3.56s.243.364.376.538.269.346.42.509.31.309.475.456.323.284.5.413a6.775,6.775,0,0,0,.614.388c.119.068.22.156.344.218l45.349,22.674a6.8,6.8,0,1,0,6.085-12.17L493.152,383.11V341.966A6.8,6.8,0,0,0,486.35,335.164Z" transform="translate(-324.427 -211.739)" fill="#2c2c2c"/>
    </g>
    <text id="历史" transform="translate(-999 1269)" fill="#2c2c2c" font-size="78" font-family="MicrosoftJhengHeiUIRegular, Microsoft JhengHei UI"><tspan x="0" y="0">历</tspan><tspan y="0" font-family="YuGothicUI-Regular, Yu Gothic UI">史</tspan></text>
  </g>
</svg>
