<svg xmlns="http://www.w3.org/2000/svg" width="195" height="298.819" viewBox="0 0 195 298.819">
  <g id="组_7" data-name="组 7" transform="translate(58 -987.181)">
    <path id="map2" d="M85.325,183.591a7.317,7.317,0,1,1,14.625,0v74.161a2.485,2.485,0,0,0,2.437,2.53,2.365,2.365,0,0,0,1.153-.3l35.385-19.693a16.52,16.52,0,0,1,16.648.3l57.709,34.886a2.36,2.36,0,0,0,2.313.08l48.749-25.14a2.541,2.541,0,0,0,1.353-2.265V183.591a7.318,7.318,0,1,1,14.625,0v64.561a17.788,17.788,0,0,1-9.47,15.858L222.1,289.151a16.518,16.518,0,0,1-16.18-.557l-57.712-34.88a2.361,2.361,0,0,0-2.379-.045l-35.385,19.7a16.571,16.571,0,0,1-8.063,2.1c-9.423,0-17.062-7.925-17.062-17.708V183.591Zm153.56-31c0,20.58-16.721,45.216-49.6,75.069a9.568,9.568,0,0,1-12.923,0c-32.882-29.85-49.6-54.488-49.6-75.069,0-31.286,25.13-56.591,56.062-56.591s56.062,25.305,56.062,56.591Zm-97.5,0c0,14.418,13.645,35.053,41.437,60.868,27.792-25.815,41.437-46.451,41.437-60.868a41.437,41.437,0,1,0-82.874,0Zm41.437,15.91a15.005,15.005,0,1,1,14.625-15A14.816,14.816,0,0,1,182.824,168.5Z" transform="translate(-143.322 891.181)" fill="#05c160"/>
    <text id="地图" transform="translate(-38 1266)" fill="#05c160" font-size="78" font-family="YuGothicUI-Regular, Yu Gothic UI"><tspan x="0" y="0">地</tspan><tspan y="0" font-family="MicrosoftJhengHeiUIRegular, Microsoft JhengHei UI">图</tspan></text>
  </g>
</svg>
