<?xml version="1.0" standalone="no"?><!DOCTYPE svg PUBLIC "-//W3C//DTD SVG 1.1//EN" "http://www.w3.org/Graphics/SVG/1.1/DTD/svg11.dtd"><svg t="1683530611528" class="icon" viewBox="0 0 1024 1024" version="1.1" xmlns="http://www.w3.org/2000/svg" p-id="4771" xmlns:xlink="http://www.w3.org/1999/xlink" width="128" height="128"><path d="M511.7 985.9c-9.5 0-19-2.4-27.5-7.3L121.8 769.3c-17-9.8-27.5-28-27.5-47.6V303.1c0-19.6 10.5-37.8 27.5-47.6L484.2 46.2c17-9.8 38-9.8 55 0l362.5 209.3c17 9.8 27.5 28 27.5 47.6v418.5c0 19.6-10.5 37.8-27.5 47.6L539.2 978.6c-8.4 4.8-18 7.3-27.5 7.3z m0-897.1c-0.9 0-1.7 0.2-2.5 0.7L146.8 298.8c-1.5 0.9-2.5 2.5-2.5 4.3v418.5c0 1.8 1 3.4 2.5 4.3l362.5 209.3c1.5 0.9 3.5 0.9 5 0L876.7 726c1.5-0.9 2.5-2.5 2.5-4.3V303.1c0-1.8-1-3.4-2.5-4.3L514.2 89.5c-0.7-0.4-1.6-0.7-2.5-0.7z" p-id="4772"></path><path d="M400.9 719.5H323c-10.3 0-18.7-8.4-18.7-18.7v-78c-0.1-14.9 5.9-29.2 16.4-39.7l261.6-261.6c21.9-21.9 57.4-21.9 79.3 0l40.7 40.5c21.9 21.9 21.9 57.4 0 79.3L440.6 703c-10.5 10.6-24.8 16.6-39.7 16.5z m146.3-310L347.1 609.7c-3.5 3.5-5.5 8.3-5.5 13.2v59.3h59.2c5 0 9.7-1.9 13.2-5.5l200.1-200.1-66.9-67.1z m74.8-67c-5 0-9.7 2-13.2 5.5l-35.2 35.1 67.1 67.1 35.1-35.1c7.3-7.3 7.3-19.1 0-26.4L635.2 348c-3.5-3.6-8.3-5.5-13.2-5.5z m0 0" p-id="4773"></path></svg>