<svg xmlns="http://www.w3.org/2000/svg" width="13.165" height="14.296" viewBox="0 0 13.165 14.296"><path d="M81.727,71.811a.445.445,0,0,1-.439-.33l-4.01-13.347a.484.484,0,0,1,.165-.522.45.45,0,0,1,.522-.027l12.221,6.7a.46.46,0,0,1,.22.522l-1.044,3.9a.5.5,0,0,1-.439.357l-.934.027a.528.528,0,0,1-.33-.11l-3.378-2.911L86.4,70a.473.473,0,0,1,.055.33l-.22.906a.47.47,0,0,1-.439.357l-4.065.22h0ZM77.855,58.134l3.927,13.1,3.9-.192.192-.8-2.279-4.257a.463.463,0,0,1,.11-.577.494.494,0,0,1,.6,0l3.708,3.131.824-.027.989-3.763ZM88.044,68.543ZM89.911,64.753Z" transform="translate(-77.257 -57.515)" fill="#231815"/></svg>