<svg xmlns="http://www.w3.org/2000/svg" width="21.355" height="21.354" viewBox="0 0 21.355 21.354"><g transform="translate(1552 20576)"><g transform="translate(-1552 -20576)"><path d="M92.1,49.213,73.391,41.135c-.728-.314-1-.8-.675-.075l8.5,18.709c.253.558.536.211.963-.231l2.383-2.269,2.981,2.724c.207,1.042.662,1.354.668,1l.1-6.148,4.063-4.233A.869.869,0,0,0,92.1,49.213ZM79.56,53.294a1.989,1.989,0,0,1-.04.312l-.121.062a2.118,2.118,0,0,1-.275-.156,3.5,3.5,0,0,1-.578-.482,3.24,3.24,0,0,1-.583-.8c-.152-.323-.218-.715-.352-1.073s-.262-.719-.372-1.064-.211-.666-.295-.943c-.171-.552-.27-.93-.27-.93l.121-.062s.244.3.583.774c.172.233.374.506.578.8s.418.616.629.934.479.611.646.926a3.183,3.183,0,0,1,.29.945A3.626,3.626,0,0,1,79.56,53.294Zm.651,2.463-.455-.908,1.218-.609.453.908Z" transform="translate(-71.538 -40.542)" fill="#fcde02"/><path d="M35.058,55.571a1.287,1.287,0,0,1-.224-.02,1.318,1.318,0,0,1-.981-.756l-8.5-18.707a1.322,1.322,0,0,1,1.728-1.761l18.709,8.078a1.321,1.321,0,0,1,.429,2.128l-1.447,1.508a.454.454,0,1,1-.655-.629L45.561,43.9a.414.414,0,0,0,.108-.369.4.4,0,0,0-.242-.3L26.718,35.16a.4.4,0,0,0-.46.09.405.405,0,0,0-.081.462l8.5,18.709a.416.416,0,0,0,.677.117l.011-.011,2.669-2.583,3.234,2.465.062-3.689a.454.454,0,0,1,.908.015l-.064,3.879a.824.824,0,0,1-1.442.53l-2.627-2-2.1,2.036A1.336,1.336,0,0,1,35.058,55.571Z" transform="translate(-25.23 -34.217)"/><path d="M759.452,601.683h-.009a.454.454,0,0,1-.446-.462l.011-.633,1.431-1.491a.454.454,0,0,1,.655.629l-1.185,1.234,0,.275A.451.451,0,0,1,759.452,601.683Z" transform="translate(-742.863 -586.541)"/><path d="M239.267,226.26l2.722,2.043v5a.158.158,0,0,1-.281.1l-10.283-12.856a.067.067,0,0,1,.092-.094l5.934,4.45" transform="translate(-226.875 -216.337)" fill="#fff"/><path d="M221.612,213.723a.616.616,0,0,1-.479-.229L210.85,200.636a.521.521,0,0,1,.719-.743l5.934,4.452a.454.454,0,1,1-.545.726l-3.494-2.621,7.854,9.817V208.34l-2.542-1.906a.454.454,0,0,1,.545-.726l2.9,2.177v5.224a.615.615,0,0,1-.409.578A.668.668,0,0,1,221.612,213.723Z" transform="translate(-206.657 -196.149)"/></g></g></svg>