<svg xmlns="http://www.w3.org/2000/svg" width="195" height="300.167" viewBox="0 0 195 300.167">
  <g id="组_10" data-name="组 10" transform="translate(-756 -1041.833)">
    <g id="setting1" transform="translate(705.385 974.31)">
      <path id="路径_11" data-name="路径 11" d="M369.526,407.653c22.415,0,39.926-18.212,39.926-40.627S391.24,326.4,369.526,326.4c-22.415,0-39.926,18.212-39.926,40.627s18.212,40.627,39.926,40.627Zm0-11.207a29.419,29.419,0,1,1,29.419-29.419,29.6,29.6,0,0,1-29.419,29.419Z" transform="translate(-221.29 -202.348)" fill="#2c2c2c"/>
      <path id="路径_12" data-name="路径 12" d="M92.594,237.069a95.206,95.206,0,0,0,23.7,14.689c8.8-8.394,20.312-13.29,31.823-13.29,12.188,0,23.021,4.9,31.823,13.29a75.788,75.788,0,0,0,23.7-14.689c-2.708-11.891-.677-24.481,4.74-35.673,6.094-10.492,15.573-18.886,27.083-22.383a107.7,107.7,0,0,0,1.354-14.689,107.7,107.7,0,0,0-1.354-14.689c-11.51-3.5-20.99-11.891-27.083-22.383s-7.448-23.782-4.74-35.673a95.206,95.206,0,0,0-23.7-14.689c-8.8,8.394-19.635,13.29-31.823,13.29-11.51,0-23.021-4.9-31.823-13.29a75.788,75.788,0,0,0-23.7,14.689c2.708,11.891.677,24.481-4.74,35.673-6.094,10.492-15.573,18.886-27.083,22.383a107.7,107.7,0,0,0-1.354,14.689,107.7,107.7,0,0,0,1.354,14.689c11.51,3.5,20.99,11.891,27.083,22.383,5.417,11.191,7.448,23.782,4.74,35.673m23.7,25.181a89.872,89.872,0,0,1-31.823-19.585c-1.354-1.4-2.031-3.5-1.354-4.9a37.561,37.561,0,0,0-3.385-30.776c-5.417-9.793-13.542-16.088-23.7-18.186-2.031-.7-3.385-2.1-3.385-4.2a96.2,96.2,0,0,1-2.031-19.585,101.513,101.513,0,0,1,2.031-19.585,7.105,7.105,0,0,1,3.385-4.2c10.156-2.8,18.958-9.093,23.7-18.186,5.417-9.793,6.094-20.284,3.385-30.776-.677-2.1,0-4.2,1.354-4.9A115.873,115.873,0,0,1,116.292,67.8c2.031-.7,3.385,0,4.74,1.4,7.448,7.694,16.927,12.59,27.083,12.59A34.588,34.588,0,0,0,175.2,69.2c1.354-1.4,3.385-2.1,4.74-1.4a89.872,89.872,0,0,1,31.823,19.585c1.354,1.4,2.031,3.5,1.354,4.9a37.561,37.561,0,0,0,3.385,30.776c5.417,9.793,13.542,16.088,23.7,18.186,2.031.7,3.385,2.1,3.385,4.2a96.2,96.2,0,0,1,2.031,19.585,101.512,101.512,0,0,1-2.031,19.585,7.105,7.105,0,0,1-3.385,4.2c-10.156,2.8-18.958,9.093-23.7,18.186-5.417,9.792-6.094,20.284-3.385,30.776.677,2.1,0,4.2-1.354,4.9a115.873,115.873,0,0,1-31.823,19.585c-2.031.7-3.385,0-4.74-1.4-7.448-7.694-16.927-12.59-27.083-12.59a34.588,34.588,0,0,0-27.083,12.59,5.087,5.087,0,0,1-3.385,1.4Z" transform="translate(0 0)" fill="#2c2c2c"/>
    </g>
    <text id="设置" transform="translate(776 1322)" fill="#2c2c2c" font-size="78" font-family="MicrosoftJhengHeiUIRegular, Microsoft JhengHei UI"><tspan x="0" y="0">设</tspan><tspan y="0" font-family="YuGothicUI-Regular, Yu Gothic UI">置</tspan></text>
  </g>
</svg>
