<?xml version="1.0" standalone="no"?><!DOCTYPE svg PUBLIC "-//W3C//DTD SVG 1.1//EN" "http://www.w3.org/Graphics/SVG/1.1/DTD/svg11.dtd"><svg t="1683530082630" class="icon" viewBox="0 0 1024 1024" version="1.1" xmlns="http://www.w3.org/2000/svg" p-id="2470" xmlns:xlink="http://www.w3.org/1999/xlink" width="128" height="128"><path d="M662.554 0H238.72C163.584 0 102.4 62.003 102.4 138.214v747.597c0 76.186 61.158 138.189 136.32 138.189h537.472c75.162 0 136.32-62.003 136.32-138.189V283.187L662.528 0z m20.096 260.403v-127.13l112.23 127.13H682.65zM154.778 117.504c0.058-37.339 30.319-67.593 67.657-67.635h394.756v272.896h244.403v578.227c-0.058 37.348-30.334 67.606-67.684 67.635H222.438c-37.351-0.029-67.628-30.287-67.686-67.63V117.503zM332.8 512h358.4c14.138 0 25.6-11.462 25.6-25.6s-11.462-25.6-25.6-25.6H332.8c-14.138 0-25.6 11.462-25.6 25.6s11.462 25.6 25.6 25.6z m0 128h358.4c14.138 0 25.6-11.462 25.6-25.6s-11.462-25.6-25.6-25.6H332.8c-14.138 0-25.6 11.462-25.6 25.6s11.462 25.6 25.6 25.6z m0 128h358.4c14.138 0 25.6-11.462 25.6-25.6s-11.462-25.6-25.6-25.6H332.8c-14.138 0-25.6 11.462-25.6 25.6s11.462 25.6 25.6 25.6z" fill="#333333" p-id="2471"></path></svg>