<svg xmlns="http://www.w3.org/2000/svg" width="195" height="298.699" viewBox="0 0 195 298.699">
  <g id="组_9" data-name="组 9" transform="translate(-1148 -483.301)">
    <g id="weather2" transform="translate(1083.478 415.148)">
      <path id="路径_21" data-name="路径 21" d="M259.769,88.693a4.425,4.425,0,1,0,8.2-3.33L262.1,70.915a4.425,4.425,0,1,0-8.2,3.33Z" transform="translate(-147.982)" fill="#05c160"/>
      <path id="路径_22" data-name="路径 22" d="M69.026,260.228l14.366,6.067a4.425,4.425,0,1,0,3.443-8.153L72.47,252.075a4.425,4.425,0,0,0-3.443,8.153Z" transform="translate(-1.401 -143.327)" fill="#05c160"/>
      <path id="路径_23" data-name="路径 23" d="M85.062,494.018a4.425,4.425,0,1,0-3.33-8.2l-14.448,5.868a4.425,4.425,0,1,0,3.33,8.2Z" transform="translate(0 -325.845)" fill="#05c160"/>
      <path id="路径_24" data-name="路径 24" d="M635.767,270.615a4.412,4.412,0,0,0,1.664-.326l14.023-5.7a4.425,4.425,0,0,0-3.33-8.2l-14.023,5.7a4.426,4.426,0,0,0,1.667,8.527Z" transform="translate(-443.782 -146.717)" fill="#05c160"/>
      <path id="路径_25" data-name="路径 25" d="M487.228,93.6a4.421,4.421,0,0,0,5.8-2.355l6.067-14.366a4.425,4.425,0,0,0-8.153-3.443L484.873,87.8A4.425,4.425,0,0,0,487.228,93.6Z" transform="translate(-328.76 -2.01)" fill="#05c160"/>
      <path id="路径_26" data-name="路径 26" d="M270.873,313.972a33.473,33.473,0,0,0-19.139-9.959c-1.523-27.1-23.188-48.81-49.972-49.855.108-1.274.166-2.555.166-3.836,0-24.368-19.489-44.192-43.445-44.192s-43.445,19.824-43.445,44.192a44.19,44.19,0,0,0,13.678,32.211A23.954,23.954,0,0,0,116.29,303.6q0,.556.026,1.113A34.407,34.407,0,0,0,91.45,337.85c0,18.944,15.164,34.355,33.8,34.355h121.58a33.152,33.152,0,0,0,23.684-10.014,34.562,34.562,0,0,0,.356-48.219Zm-147.134-63.65c0-19.487,15.586-35.341,34.744-35.341s34.744,15.854,34.744,35.341a36.437,36.437,0,0,1-.251,4.241,52.164,52.164,0,0,0-40.037,29.267,23.113,23.113,0,0,0-13.18-4.11q-.277,0-.553.007A35.251,35.251,0,0,1,123.739,250.322ZM264.385,355.913a24.58,24.58,0,0,1-17.551,7.442H125.254a25.536,25.536,0,0,1-3.479-50.767,4.34,4.34,0,0,0,3-1.893,4.489,4.489,0,0,0,.632-3.537,15.336,15.336,0,0,1-.421-3.562,14.967,14.967,0,0,1,12.6-14.862,4.222,4.222,0,0,0,1.991-.159c.059,0,.116,0,.175,0a14.63,14.63,0,0,1,11.46,5.543,4.312,4.312,0,0,0,4.137,1.562,4.372,4.372,0,0,0,3.351-2.92,43.442,43.442,0,0,1,41.032-29.791c23.919,0,43.378,19.785,43.378,44.1,0,.185,0,.366.009.547,0,.121.008.241.005.364a4.393,4.393,0,0,0,4.232,4.514,24.834,24.834,0,0,1,17.292,7.674,25.6,25.6,0,0,1-.272,35.746Z" transform="translate(-20.972 -109.052)" fill="#05c160"/>
    </g>
    <text id="天气" transform="translate(1168 762)" fill="#05c160" font-size="78" font-family="YuGothicUI-Regular, Yu Gothic UI"><tspan x="0" y="0">天气</tspan></text>
  </g>
</svg>
