<?xml version="1.0" standalone="no"?><!DOCTYPE svg PUBLIC "-//W3C//DTD SVG 1.1//EN" "http://www.w3.org/Graphics/SVG/1.1/DTD/svg11.dtd"><svg t="1684755037557" class="icon" viewBox="0 0 1024 1024" version="1.1" xmlns="http://www.w3.org/2000/svg" p-id="5693" xmlns:xlink="http://www.w3.org/1999/xlink" width="128" height="128"><path d="M874.666667 768h-44.672a21.333333 21.333333 0 0 0 0 42.666667H874.666667a21.333333 21.333333 0 0 0 0-42.666667zM745.344 768h-181.845333l304.917333-304.917333a21.333333 21.333333 0 0 0 0-30.165334l-213.333333-213.333333a21.333333 21.333333 0 0 0-30.165334 0l-341.333333 341.333333A21.333333 21.333333 0 0 0 277.333333 576v192H149.333333a21.333333 21.333333 0 0 0 0 42.666667h596.010667a21.333333 21.333333 0 0 0 0-42.666667z m-221.632-20.565333l-37.824-36.949334 306.773333-292.992 30.506667 30.506667z m238.784-360.106667l-307.136 293.333333-55.829333-54.528 307.797333-293.973333zM640 264.832l37.162667 37.162667-308.16 294.314666-30.592-29.866666zM320 608l163.797333 160H320z" fill="#2c2c2c" p-id="5694"></path></svg>