<?xml version="1.0" standalone="no"?><!DOCTYPE svg PUBLIC "-//W3C//DTD SVG 1.1//EN" "http://www.w3.org/Graphics/SVG/1.1/DTD/svg11.dtd"><svg t="1683463614912" class="icon" viewBox="0 0 1024 1024" version="1.1" xmlns="http://www.w3.org/2000/svg" p-id="2040" xmlns:xlink="http://www.w3.org/1999/xlink" width="128" height="128"><path d="M760.9 959.6H197.5c-55.3-0.1-96.7-38.1-96.8-93.4v-703c0.1-55.3 41.5-97.8 96.8-97.9h431c17.1 0 30.9 11.5 30.9 28.6s-13.8 27.5-30.9 27.5h-431c-21.2 0-40.7 20.6-40.7 41.8v703c0 21.2 19.5 38.5 40.7 38.5h563.3c21.2 0 41.8-17.3 41.8-38.5V460c0-17.1 10.4-30.8 27.5-30.8s29.7 13.8 29.7 30.8v406.3c0 55.2-43.7 93.2-98.9 93.3z m0 0" p-id="2041"></path><path d="M730.3 770.5h-101c-17.1 0-29.7 11.3-29.7 29.5s12.7 27.3 29.7 27.3h101c17.1 0 28.6-9.1 28.6-27.3 0.1-18.2-11.5-29.5-28.6-29.5zM497.3 770.5H147.5c-17.1 0-30.9 10.2-30.9 28.4s13.8 28.4 30.9 28.4h349.9c17.1 0 30.9-10.2 30.9-28.4-0.1-18.2-13.8-28.4-31-28.4zM906 120.2l-40.3-40.3c-24.7-24.7-66.9-22.5-94.3 4.8L404.1 452.2l-74.6 204.2 204.2-74.5 367.5-367.5c12.3-12.1 20-28.1 21.7-45.2 2-18-4.2-36-16.9-49zM499.8 528.6L432.9 553l24.3-66.9L729.4 214l42 42.9-271.6 271.7z m357.8-357.8l-42.5 42.5-42-42.9 42-42.1c3.2-3.2 6.4-4 7.8-4l38.7 38.7c-0.4 3-1.8 5.7-4 7.8z" p-id="2042"></path></svg>